<svg xmlns="http://www.w3.org/2000/svg" viewBox="0 0 886.72 1023.89"><defs><radialGradient id="Unbenannter_Verlauf" cx="-196.59" cy="1024" fx="-196.59" fy="1024" r="1" gradientTransform="translate(-362485.39 70186.57) rotate(90) scale(354.42 -354.42)" gradientUnits="userSpaceOnUse"><stop offset="0" stop-color="#76a6ff"/><stop offset="1" stop-color="#1d94f3"/></radialGradient><radialGradient id="Unbenannter_Verlauf_2" cx="-196.59" cy="1024" fx="-196.59" fy="1024" r="1" gradientTransform="translate(121567.71 -348631.13) rotate(-150) scale(354.42 -354.42)" gradientUnits="userSpaceOnUse"><stop offset="0" stop-color="#086ae9"/><stop offset="1" stop-color="#004992"/></radialGradient><radialGradient id="Unbenannter_Verlauf_3" cx="-196.59" cy="1024" fx="-196.59" fy="1024" r="1" gradientTransform="translate(242247.79 279980.39) rotate(-30) scale(354.42 -354.42)" gradientUnits="userSpaceOnUse"><stop offset="0" stop-color="#0c5bd7"/><stop offset="1" stop-color="#00265c"/></radialGradient></defs><path d="M443.36,0L0,255.97l34.11,19.69L443.36,39.38l409.25,236.28,34.11-19.69L443.36,0Z" fill="#1d94f3" fill-rule="evenodd"/><path d="M886.71,255.97l-34.11,19.69v472.56s-409.25,236.28-409.25,236.28v39.38s443.36-255.97,443.36-255.97" fill="#004992" fill-rule="evenodd"/><path d="M443.36,984.51L34.11,748.23V275.67S0,255.97,0,255.97v511.95s443.36,255.97,443.36,255.97" fill="#00265c" fill-rule="evenodd"/><path d="M34.12,748.23l409.86-235.6,408.64,235.6-409.25,236.28L34.12,748.23Z" fill="url(#Unbenannter_Verlauf)" fill-rule="evenodd"/><path d="M443.99,512.63L34.12,748.23V275.66L443.37,39.38" fill="url(#Unbenannter_Verlauf_2)" fill-rule="evenodd"/><path d="M443.37,39.38l409.25,236.28v472.56l-409.25-235.96V39.38Z" fill="url(#Unbenannter_Verlauf_3)" fill-rule="evenodd"/><g><path d="M184.22,736.64l64.84,37.43,64.83-37.43-64.83-37.43-64.84,37.43Z" fill="#878787" fill-rule="evenodd"/><path d="M637.71,549.62l-194.36,112.21,64.84,37.27,194.31-112.07-64.79-37.41Z" fill="#878787" fill-rule="evenodd"/><path d="M184.22,437.18l64.84,37.43,64.83-37.43-64.83-37.43-64.84,37.43Z" fill="#878787" fill-rule="evenodd"/><path d="M249.06,624.35l64.84,37.43,64.69-37.37-64.69-37.49-64.84,37.43Z" fill="#878787" fill-rule="evenodd"/><path d="M249.06,474.62l64.84,37.43,64.83-37.43-64.83-37.43-64.84,37.43Z" fill="#878787" fill-rule="evenodd"/><path d="M313.88,512.03l64.84,37.43,64.63-37.26-64.78-37.43-64.69,37.26Z" fill="#878787" fill-rule="evenodd"/><path d="M184.22,736.63l64.79-37.43,.05-74.86-64.84,37.43v74.86Z" fill="#fff" fill-rule="evenodd"/><path d="M637.71,474.83l-194.35,112.21v74.81l194.35-112.21v-74.81Z" fill="#fff" fill-rule="evenodd"/><path d="M249.06,624.34l64.84-37.43v-74.86l-64.84,37.43v74.86Z" fill="#fff" fill-rule="evenodd"/><path d="M378.73,474.62v-74.51l-64.83-37.78v75.16l64.83,37.14Z" fill="#cacaca" fill-rule="evenodd"/><path d="M313.89,437.18v-74.86l-64.83-37.08v74.51l64.83,37.43Z" fill="#cacaca" fill-rule="evenodd"/><path d="M313.88,512.05l64.84-37.43v-74.86l-64.84,37.43v74.86Z" fill="#fff" fill-rule="evenodd"/><path d="M249.06,474.61l64.84-37.43v-74.51l-64.84,37.08v74.86Z" fill="#fff" fill-rule="evenodd"/><path d="M184.22,437.17l64.84-37.43v-74.86l-64.84,37.43v74.86Z" fill="#fff" fill-rule="evenodd"/><path d="M313.89,736.64v-74.86l-64.83-37.43v74.86l64.83,37.43Z" fill="#cacaca" fill-rule="evenodd"/><path d="M702.49,587.04v-74.81l-64.79-37.43v74.81l64.79,37.43Z" fill="#cacaca" fill-rule="evenodd"/><path d="M378.58,624.41c-.47-29.19,.01-50.36,0-74.98l-64.69-37.37v74.86l64.69,37.49Z" fill="#cacaca" fill-rule="evenodd"/><path d="M443.35,512.21v-74.81l-64.78-37.43v74.81l64.78,37.43Z" fill="#cacaca" fill-rule="evenodd"/></g></svg>